<svg width="56" height="56" viewBox="0 0 56 56" fill="none" xmlns="http://www.w3.org/2000/svg">
    <path
        d="M38.6272 28C38.6272 22.1307 33.8692 17.3727 28 17.3727C22.1307 17.3727 17.3727 22.1307 17.3727 28C17.3727 33.8693 22.1307 38.6273 28 38.6273C33.8692 38.6273 38.6272 33.8693 38.6272 28Z"
        stroke="currentColor"
        stroke-width="1.6"
    />
    <path
        d="M30.1533 23.025C30.5157 22.7321 31.0486 23.0398 30.9762 23.5001L29.5024 32.8602C29.427 33.3382 28.7902 33.4515 28.5547 33.0287L26.9212 30.0959C26.8299 29.9321 26.6561 29.8317 26.4686 29.8346L23.112 29.8863C22.6281 29.8938 22.4078 29.2856 22.7842 28.9814L30.1533 23.025Z"
        stroke="currentColor"
        stroke-width="1.6"
        stroke-linejoin="round"
    />
</svg>