<svg viewBox="0 0 14 16" fill="none" xmlns="http://www.w3.org/2000/svg"
    preserveAspectRatio="xMidYMid meet">
    <path
        d="M1 8.73438C1 8.23709 1.19754 7.76018 1.54917 7.40855C1.90081 7.05692 2.37772 6.85937 2.875 6.85938H10.75C11.2473 6.85938 11.7242 7.05692 12.0758 7.40855C12.4275 7.76018 12.625 8.23709 12.625 8.73438V14.7344H1V8.73438Z"
        stroke="currentColor" stroke-width="1.02" stroke-linecap="round" stroke-linejoin="round" />
    <path
        d="M1 9.94938L2.68675 11.0369C3.05027 11.2713 3.47368 11.396 3.90625 11.396C4.33882 11.396 4.76223 11.2713 5.12575 11.0369L5.593 10.7369C5.95652 10.5024 6.37993 10.3777 6.8125 10.3777C7.24507 10.3777 7.66848 10.5024 8.032 10.7369L8.49925 11.0369C8.86277 11.2713 9.28618 11.396 9.71875 11.396C10.1513 11.396 10.5747 11.2713 10.9382 11.0369L12.625 9.94938M6.8125 4.48187V6.85938M6.8125 0.859375L7.873 1.91988C8.08282 2.12964 8.22573 2.39691 8.28364 2.68789C8.34156 2.97888 8.31188 3.2805 8.19836 3.55462C8.08484 3.82873 7.89259 4.06303 7.6459 4.22787C7.39922 4.39271 7.10919 4.4807 6.8125 4.4807C6.51581 4.4807 6.22578 4.39271 5.9791 4.22787C5.73241 4.06303 5.54016 3.82873 5.42664 3.55462C5.31312 3.2805 5.28344 2.97888 5.34136 2.68789C5.39927 2.39691 5.54218 2.12964 5.752 1.91988L6.8125 0.859375Z"
        stroke="currentColor" stroke-width="1.02" stroke-linecap="round" stroke-linejoin="round" />
</svg>