<svg viewBox="0 0 12 17" fill="none" xmlns="http://www.w3.org/2000/svg"
    preserveAspectRatio="xMidYMid meet">
    <mask id="mask0_413_170" style="mask-type:luminance" maskUnits="userSpaceOnUse" x="0" y="0"
        width="12" height="17">
        <path fill-rule="evenodd" clip-rule="evenodd"
            d="M3.33333 0.5C1.4924 0.5 0 1.9924 0 3.83333V6.5V8.5V11.5V16.5L5.66667 13.1667L11.3333 16.5V11.5V8.5V6.5V3.83333C11.3333 1.9924 9.84093 0.5 8 0.5H3.33333Z"
            fill="white" />
    </mask>
    <g mask="url(#mask0_413_170)">
        <path
            d="M1.65701e-05 16.5H-1.06665V18.365L0.540817 17.4194L1.65701e-05 16.5ZM5.66668 13.1667L6.20748 12.2473L5.66668 11.9291L5.12588 12.2473L5.66668 13.1667ZM11.3334 16.5L10.7926 17.4194L12.4 18.365V16.5H11.3334ZM1.06668 3.83332C1.06668 2.58145 2.08148 1.56665 3.33335 1.56665V-0.566681C0.903283 -0.566681 -1.06665 1.40325 -1.06665 3.83332H1.06668ZM1.06668 6.49999V3.83332H-1.06665V6.49999H1.06668ZM1.06668 8.49999V6.49999H-1.06665V8.49999H1.06668ZM1.06668 11.5V8.49999H-1.06665V11.5H1.06668ZM1.06668 16.5V11.5H-1.06665V16.5H1.06668ZM5.12588 12.2473L-0.540784 15.5806L0.540817 17.4194L6.20748 14.0861L5.12588 12.2473ZM11.8741 15.5806L6.20748 12.2473L5.12588 14.0861L10.7926 17.4194L11.8741 15.5806ZM10.2667 11.5V16.5H12.4V11.5H10.2667ZM10.2667 8.49999V11.5H12.4V8.49999H10.2667ZM10.2667 6.49999V8.49999H12.4V6.49999H10.2667ZM10.2667 3.83332V6.49999H12.4V3.83332H10.2667ZM8.00002 1.56665C9.25188 1.56665 10.2667 2.58145 10.2667 3.83332H12.4C12.4 1.40325 10.4301 -0.566681 8.00002 -0.566681V1.56665ZM3.33335 1.56665H8.00002V-0.566681H3.33335V1.56665Z"
            fill="currentColor" />
    </g>
</svg>