<svg viewBox="0 0 14 14" fill="none" xmlns="http://www.w3.org/2000/svg"
    preserveAspectRatio="xMidYMid meet">
    <path
        d="M11.29 2.20331H10.0967V1.36331C10.0967 1.13955 9.90233 0.921059 9.65963 0.930047C9.43198 0.938479 9.23 1.11696 9.23 1.36331V2.20331H4.76333V1.36331C4.76333 1.13955 4.56899 0.921059 4.3263 0.930047C4.09864 0.938479 3.89667 1.11696 3.89667 1.36331V2.20331H2.71C2.24145 2.20331 1.79209 2.38944 1.46078 2.72076C1.12947 3.05207 0.943335 3.50143 0.943335 3.96998V11.3033C0.943335 11.7719 1.12947 12.2212 1.46078 12.5525C1.79209 12.8838 2.24145 13.07 2.71 13.07H11.29C11.7586 13.07 12.2079 12.8838 12.5392 12.5525C12.8705 12.2212 13.0567 11.7719 13.0567 11.3033V3.96998C13.0567 3.50143 12.8705 3.05207 12.5392 2.72076C12.2079 2.38944 11.7586 2.20331 11.29 2.20331ZM12.19 11.3033C12.19 11.8014 11.7881 12.2033 11.29 12.2033H2.71C2.2119 12.2033 1.81 11.8014 1.81 11.3033V5.78998H12.19V11.3033ZM12.19 4.92331H1.81V3.96998C1.81 3.47187 2.2119 3.06998 2.71 3.06998H3.89667V3.36331C3.89667 3.58708 4.09101 3.80557 4.3337 3.79658C4.56136 3.78815 4.76333 3.60966 4.76333 3.36331V3.06998H9.23V3.36331C9.23 3.58708 9.42434 3.80557 9.66704 3.79658C9.89469 3.78815 10.0967 3.60966 10.0967 3.36331V3.06998H11.29C11.7881 3.06998 12.19 3.47187 12.19 3.96998V4.92331Z"
        fill="currentColor" stroke="currentColor" stroke-width="0.2" />
</svg>