<svg viewBox="0 0 17 16" fill="none" xmlns="http://www.w3.org/2000/svg"
    preserveAspectRatio="xMidYMid meet">
    <path
        d="M8.5 0C4.081 0 0.5 3.582 0.5 8C0.5 12.418 4.081 16 8.5 16C12.919 16 16.5 12.418 16.5 8C16.5 3.582 12.919 0 8.5 0ZM12.207 10.293C12.3945 10.4805 12.4998 10.7348 12.4998 11C12.4998 11.2652 12.3945 11.5195 12.207 11.707C12.0195 11.8945 11.7652 11.9998 11.5 11.9998C11.2348 11.9998 10.9805 11.8945 10.793 11.707L8.5 9.414L6.207 11.707C6.11435 11.8002 6.00419 11.8741 5.88285 11.9246C5.76152 11.9751 5.63141 12.001 5.5 12.001C5.36859 12.001 5.23848 11.9751 5.11715 11.9246C4.99581 11.8741 4.88565 11.8002 4.793 11.707C4.60553 11.5195 4.50021 11.2652 4.50021 11C4.50021 10.7348 4.60553 10.4805 4.793 10.293L7.086 8L4.793 5.707C4.60549 5.51949 4.50015 5.26518 4.50015 5C4.50015 4.73482 4.60549 4.48051 4.793 4.293C4.98051 4.10549 5.23482 4.00015 5.5 4.00015C5.76518 4.00015 6.01949 4.10549 6.207 4.293L8.5 6.586L10.793 4.293C10.9805 4.10549 11.2348 4.00015 11.5 4.00015C11.7652 4.00015 12.0195 4.10549 12.207 4.293C12.3945 4.48051 12.4998 4.73482 12.4998 5C12.4998 5.26518 12.3945 5.51949 12.207 5.707L9.914 8L12.207 10.293Z"
        fill="currentColor" />
</svg>