<svg viewBox="0 0 13 14" fill="none" xmlns="http://www.w3.org/2000/svg"
    preserveAspectRatio="xMidYMid meet">
    <path fill-rule="evenodd" clip-rule="evenodd"
        d="M6.5 0.5C4.7346 0.5 4.5136 0.5078 3.82005 0.539C3.12845 0.57085 2.6559 0.6807 2.2425 0.84125C1.80861 1.00428 1.41553 1.26005 1.0907 1.5907C0.760049 1.91553 0.50428 2.30861 0.34125 2.7425C0.1807 3.1559 0.07085 3.62845 0.039 4.32005C0.00714996 5.0136 0 5.2346 0 7C0 8.7654 0.00714996 8.9864 0.039 9.67995C0.07085 10.3715 0.1807 10.8441 0.34125 11.2575C0.50428 11.6914 0.760049 12.0845 1.0907 12.4093C1.41553 12.74 1.80861 12.9957 2.2425 13.1587C2.6559 13.3193 3.12845 13.4291 3.82005 13.461C4.5136 13.4922 4.7346 13.5 6.5 13.5C8.2654 13.5 8.4864 13.4922 9.17995 13.461C9.87155 13.4291 10.3441 13.3193 10.7575 13.1587C11.1914 12.9957 11.5845 12.74 11.9093 12.4093C12.24 12.0845 12.4957 11.6914 12.6587 11.2575C12.8193 10.8441 12.9291 10.3715 12.961 9.67995C12.9922 8.9864 13 8.7654 13 7C13 5.2346 12.9922 5.0136 12.961 4.32005C12.9291 3.62845 12.8193 3.1559 12.6587 2.7425C12.4957 2.30861 12.24 1.91553 11.9093 1.5907C11.5845 1.26005 11.1914 1.00428 10.7575 0.84125C10.3441 0.6807 9.87155 0.57085 9.17995 0.539C8.4864 0.5078 8.2654 0.5 6.5 0.5ZM6.5 1.6713C8.2355 1.6713 8.4409 1.6778 9.126 1.709C9.7604 1.73825 10.1042 1.84355 10.3337 1.9326C10.6366 2.0509 10.8537 2.19195 11.0812 2.4188C11.3087 2.6463 11.4491 2.8634 11.5674 3.1663C11.6558 3.39575 11.7624 3.7396 11.791 4.37335C11.8222 5.0591 11.8287 5.26385 11.8287 7C11.8287 8.7355 11.8222 8.9409 11.791 9.626C11.7617 10.2604 11.6558 10.6042 11.5674 10.8337C11.4632 11.116 11.2971 11.3715 11.0812 11.5812C10.8537 11.8087 10.6366 11.9491 10.3337 12.0674C10.1042 12.1558 9.7604 12.2624 9.12665 12.291C8.44155 12.3222 8.23615 12.3287 6.5 12.3287C4.7645 12.3287 4.55845 12.3222 3.874 12.291C3.2396 12.2617 2.89575 12.1558 2.6663 12.0674C2.38395 11.9632 2.12853 11.7971 1.9188 11.5812C1.70294 11.3715 1.53681 11.116 1.4326 10.8337C1.34355 10.6042 1.2376 10.2604 1.209 9.62665C1.1778 8.9409 1.1713 8.73615 1.1713 7C1.1713 5.2645 1.1778 5.0591 1.209 4.374C1.23825 3.7396 1.34355 3.39575 1.4326 3.1663C1.5509 2.8634 1.69195 2.6463 1.9188 2.4188C2.1463 2.1913 2.3634 2.0509 2.6663 1.9326C2.89575 1.84355 3.2396 1.7376 3.87335 1.709C4.5591 1.6778 4.76385 1.6713 6.5 1.6713ZM6.5 9.16645C5.92542 9.16645 5.37438 8.9382 4.96809 8.53191C4.5618 8.12562 4.33355 7.57458 4.33355 7C4.33355 6.42542 4.5618 5.87438 4.96809 5.46809C5.37438 5.0618 5.92542 4.83355 6.5 4.83355C7.07458 4.83355 7.62562 5.0618 8.03191 5.46809C8.4382 5.87438 8.66645 6.42542 8.66645 7C8.66645 7.57458 8.4382 8.12562 8.03191 8.53191C7.62562 8.9382 7.07458 9.16645 6.5 9.16645ZM6.5 3.66225C6.06168 3.66225 5.62765 3.74858 5.2227 3.91632C4.81774 4.08406 4.44979 4.32992 4.13985 4.63985C3.82992 4.94979 3.58406 5.31774 3.41632 5.7227C3.24858 6.12765 3.16225 6.56168 3.16225 7C3.16225 7.43832 3.24858 7.87235 3.41632 8.2773C3.58406 8.68226 3.82992 9.05021 4.13985 9.36014C4.44979 9.67008 4.81774 9.91594 5.2227 10.0837C5.62765 10.2514 6.06168 10.3377 6.5 10.3377C7.38523 10.3377 8.2342 9.98609 8.86014 9.36014C9.48609 8.7342 9.83775 7.88523 9.83775 7C9.83775 6.11477 9.48609 5.2658 8.86014 4.63985C8.2342 4.01391 7.38523 3.66225 6.5 3.66225ZM10.7497 3.5303C10.7497 3.63273 10.7295 3.73416 10.6903 3.82879C10.6511 3.92343 10.5937 4.00941 10.5212 4.08184C10.4488 4.15427 10.3628 4.21173 10.2682 4.25093C10.1736 4.29012 10.0721 4.3103 9.9697 4.3103C9.86727 4.3103 9.76584 4.29012 9.67121 4.25093C9.57657 4.21173 9.49059 4.15427 9.41816 4.08184C9.34573 4.00941 9.28827 3.92343 9.24907 3.82879C9.20988 3.73416 9.1897 3.63273 9.1897 3.5303C9.1897 3.32343 9.27188 3.12504 9.41816 2.97876C9.56443 2.83248 9.76283 2.7503 9.9697 2.7503C10.1766 2.7503 10.375 2.83248 10.5212 2.97876C10.6675 3.12504 10.7497 3.32343 10.7497 3.5303Z"
        fill="currentColor" />
</svg>