<svg viewBox="0 0 22 18" fill="none" xmlns="http://www.w3.org/2000/svg"
    preserveAspectRatio="xMidYMid meet">
    <path
        d="M3.875 0.75C2.97989 0.75 2.12145 1.10558 1.48851 1.73851C0.855579 2.37145 0.5 3.22989 0.5 4.125V13.875C0.5 14.7701 0.855579 15.6285 1.48851 16.2615C2.12145 16.8944 2.97989 17.25 3.875 17.25H18.125C19.0201 17.25 19.8785 16.8944 20.5115 16.2615C21.1444 15.6285 21.5 14.7701 21.5 13.875V4.125C21.5 3.22989 21.1444 2.37145 20.5115 1.73851C19.8785 1.10558 19.0201 0.75 18.125 0.75H3.875ZM20 4.80225L11 9.648L2 4.80225V4.125C2 3.62772 2.19754 3.15081 2.54917 2.79917C2.90081 2.44754 3.37772 2.25 3.875 2.25H18.125C18.6223 2.25 19.0992 2.44754 19.4508 2.79917C19.8025 3.15081 20 3.62772 20 4.125V4.80225ZM2 6.5055L10.6445 11.1608C10.7538 11.2196 10.8759 11.2504 11 11.2504C11.1241 11.2504 11.2462 11.2196 11.3555 11.1608L20 6.5055V13.875C20 14.3723 19.8025 14.8492 19.4508 15.2008C19.0992 15.5525 18.6223 15.75 18.125 15.75H3.875C3.37772 15.75 2.90081 15.5525 2.54917 15.2008C2.19754 14.8492 2 14.3723 2 13.875V6.5055Z"
        fill="currentColor" />
</svg>