<svg width="11" height="14" viewBox="0 0 11 14" fill="none" xmlns="http://www.w3.org/2000/svg">
<path d="M0.152 13.44V0.4H5.816C8.712 0.4 10.344 1.904 10.344 4.288C10.344 5.216 9.72 6.272 8.824 6.608C10.072 7.008 10.952 8.224 10.952 9.488C10.952 11.904 9.224 13.44 6.296 13.44H0.152ZM3.064 5.68H5.688C6.792 5.68 7.432 5.2 7.432 4.288C7.432 3.376 6.792 2.88 5.688 2.88H3.064V5.68ZM3.064 10.96H6.168C7.32 10.96 8.04 10.448 8.04 9.488C8.04 8.528 7.32 8.016 6.168 8.016H3.064V10.96Z" fill="#262626"/>
</svg>
