<svg width="51" height="19" viewBox="0 0 51 19" fill="none" xmlns="http://www.w3.org/2000/svg">
<path d="M6.344 14.44L4.056 11L2.92 12.28V14.44H0.072V0.999999H2.92V8.888L6.232 5.064H9.4L5.8 9.064L9.592 14.44H6.344ZM13.3657 4.84C15.7018 4.84 17.5417 6.024 17.6538 7.88H14.9018C14.8057 7.304 14.1498 6.952 13.3177 6.952C12.4538 6.952 11.8297 7.256 11.8297 7.672C11.8297 8.136 12.4538 8.36 14.0538 8.616C16.8217 9.032 17.8138 9.944 17.8138 11.56C17.8138 13.48 15.7977 14.664 13.4138 14.664C10.9657 14.664 9.10975 13.448 9.01375 11.48H11.7657C11.8617 12.088 12.5658 12.488 13.4618 12.488C14.3738 12.488 15.0458 12.152 15.0458 11.72C15.0458 11.272 14.4057 10.984 12.7898 10.744C10.5497 10.408 9.07775 9.72 9.07775 7.816C9.07775 5.992 10.9817 4.84 13.3657 4.84ZM20.1966 0.535999C21.2046 0.535999 21.9406 1.272 21.9406 2.28C21.9406 3.288 21.2046 4.024 20.1966 4.024C19.1886 4.024 18.4526 3.288 18.4526 2.28C18.4526 1.272 19.1886 0.535999 20.1966 0.535999ZM21.6206 5.064V14.472H18.7726V5.064H21.6206ZM27.821 18.568C25.037 18.568 23.501 16.984 23.197 15.176H26.077C26.221 15.784 26.765 16.168 27.821 16.168C29.005 16.168 29.805 15.4 29.805 14.232V13.24C29.245 13.992 28.349 14.424 27.117 14.424C24.429 14.424 22.557 12.424 22.557 9.672C22.557 6.872 24.429 4.84 27.117 4.84C28.349 4.84 29.245 5.272 29.805 6.024V5.064H32.653V14.264C32.653 16.808 30.621 18.568 27.821 18.568ZM27.565 12.072C28.957 12.072 29.853 11.064 29.853 9.672C29.853 8.28 28.957 7.272 27.565 7.272C26.205 7.272 25.341 8.28 25.341 9.672C25.341 11.064 26.205 12.072 27.565 12.072ZM34.0826 14.44V0.999999H36.9306V6.024C37.4906 5.272 38.3546 4.84 39.5546 4.84C41.7306 4.84 43.2186 6.424 43.2186 9.016V14.44H40.3706V9.496C40.3706 8.072 39.7946 7.288 38.7226 7.288C37.6026 7.288 36.9306 8.168 36.9306 9.624V14.44H34.0826ZM50.0285 5.064V7.512H48.1725V14.44H45.3245V7.512H43.4685V5.064H45.3245V2.28H48.1725V5.064H50.0285Z" fill="#262626"/>
</svg>
